<svg width="205" height="38" viewBox="0 0 205 38" fill="none" xmlns="http://www.w3.org/2000/svg">
<g clip-path="url(#clip0_198_1844)">
<path d="M22.1514 11.2314C23.2512 11.1309 24.2664 11.3387 25.2135 11.7517C26.3256 12.2379 27.3463 12.9021 28.1271 13.8515C28.818 14.6909 29.5389 15.4896 30.4316 16.1212C31.1334 16.6183 31.8747 17.0339 32.6815 17.349C34.0306 17.876 35.4165 18.092 36.8638 18.0689C39.0538 18.0322 41.2464 18.0798 43.4364 18.0322C44.3494 18.0132 45.2298 17.7416 46.0979 17.4305C47.3516 16.9809 48.3532 16.1429 49.4421 15.4271C50.4587 14.7588 51.6075 14.5605 52.8177 14.9042C53.8016 15.1826 54.6042 15.7137 55.2025 16.5382C55.6318 17.1304 55.8934 17.7932 55.9711 18.5266C56.0951 19.6988 55.8266 20.7651 55.0785 21.6819C54.6642 22.1899 54.1136 22.5362 53.5331 22.8513C52.8367 23.2303 52.109 23.3132 51.3445 23.2765C50.5255 23.2371 49.81 22.9206 49.16 22.4534C48.3764 21.8897 47.5928 21.3437 46.7002 20.9416C45.2666 20.2965 43.7921 19.9664 42.2154 19.9949C40.0022 20.0343 37.7877 20.0044 35.5746 20.0275C34.7065 20.037 33.8807 20.3182 33.0685 20.5898C32.2495 20.8629 31.4618 21.2214 30.7532 21.7349C29.8946 22.3583 29.1042 23.0442 28.4174 23.8605C27.6338 24.7909 26.7453 25.5977 25.6128 26.1356C24.0893 26.8596 22.503 27.009 20.8772 26.7672C19.8824 26.6192 18.9639 26.2185 18.0795 25.7023C17.0302 25.0911 16.2316 24.2531 15.5897 23.2629C14.9479 22.2714 14.5431 21.178 14.4027 19.9881C14.2583 18.763 14.37 17.5677 14.7898 16.4213C15.2013 15.2954 15.8296 14.297 16.699 13.4345C17.2823 12.8546 17.9786 12.4552 18.6287 11.9839C18.9925 11.7204 19.4613 11.6444 19.8906 11.5384C20.6442 11.3523 21.3978 11.0915 22.1514 11.2328V11.2314Z" fill="#FAFAFA"/>
<path d="M8.70262 0.0611271C9.8596 0.0353202 10.8217 0.501203 11.7225 1.1749C12.7051 1.90972 13.7748 2.50192 14.9632 2.83197C16.0193 3.124 17.0931 3.31416 18.2024 3.30737C20.9838 3.28835 23.7652 3.30329 26.5466 3.30193C27.9571 3.30193 29.2926 2.99632 30.5818 2.40684C31.5534 1.96269 32.4379 1.40173 33.2869 0.766063C34.1331 0.131757 35.1048 -0.0502501 36.1446 0.0122298C37.6886 0.104591 38.7815 0.952145 39.531 2.18952C40.0966 3.124 40.2887 4.18208 39.9835 5.31487C39.6646 6.49927 38.9764 7.38622 37.9884 8.02324C37.3097 8.4606 36.5289 8.72274 35.6744 8.6331C35.2356 8.58692 34.8022 8.58556 34.373 8.43208C33.8333 8.23784 33.3482 7.97298 32.9189 7.60218C32.3179 7.08332 31.6461 6.67177 30.9306 6.33628C29.3376 5.5906 27.6586 5.28227 25.8966 5.30536C23.3428 5.33932 20.7876 5.32845 18.2338 5.30536C17.2717 5.29721 16.3382 5.46156 15.4129 5.6653C14.8827 5.78211 14.3417 5.93967 13.8457 6.14069C13.0689 6.45717 12.3466 6.91626 11.6925 7.46092C10.7631 8.23377 9.70834 8.69422 8.48458 8.58148C7.16815 8.45924 6.10383 7.87926 5.2998 6.78451C4.48214 5.67074 4.34723 4.45781 4.64431 3.18376C4.8242 2.41363 5.23984 1.7345 5.84763 1.19391C6.66256 0.468605 7.60968 0.0801427 8.70262 0.0611271Z" fill="#FAFAFA"/>
<path d="M4.52721 34.038C4.5313 32.2288 5.17316 31.0579 6.42554 30.2199C7.32088 29.6209 8.3116 29.3506 9.38137 29.534C9.92784 29.6277 10.4634 29.826 10.9417 30.118C11.709 30.588 12.374 31.2114 13.1862 31.6189C13.7272 31.8906 14.3023 32.0766 14.8624 32.3007C15.3189 32.4841 15.8122 32.48 16.2633 32.6607C16.495 32.753 16.7485 32.7653 17.0006 32.7653C20.4061 32.768 23.813 32.7707 27.2186 32.7761C27.9926 32.7761 28.7108 32.533 29.4453 32.3374C29.801 32.2437 30.1581 32.1255 30.4892 31.9979C30.8749 31.8484 31.2755 31.6678 31.6298 31.4301C32.3017 30.9805 32.9367 30.4685 33.6331 30.0623C34.6143 29.4905 35.6745 29.3438 36.7988 29.6304C37.7991 29.8844 38.5867 30.4494 39.1809 31.2454C39.9168 32.2342 40.203 33.3493 39.9086 34.5948C39.7846 35.1205 39.6279 35.6217 39.3363 36.0631C39.0392 36.5127 38.6263 36.8822 38.1983 37.2068C37.6096 37.6536 36.9269 37.9144 36.1733 37.9593C35.5246 37.9973 34.8787 37.9742 34.2695 37.7338C33.738 37.5246 33.2502 37.2271 32.8073 36.8591C31.9596 36.1541 30.9975 35.6203 29.9618 35.2767C29.0338 34.9697 28.0785 34.6954 27.0796 34.694C23.9466 34.6899 20.8122 34.6872 17.6792 34.6981C16.7716 34.7008 15.8899 34.8801 15.015 35.1382C14.1551 35.3921 13.3443 35.7303 12.5948 36.2125C12.1328 36.51 11.6926 36.8387 11.2497 37.166C10.1813 37.9579 8.98481 38.1915 7.6861 37.8465C6.66539 37.5749 5.83819 37.0221 5.25493 36.1419C4.7766 35.4193 4.41547 34.6492 4.52585 34.038H4.52721Z" fill="#FAFAFA"/>
<path d="M8.88371 19.2791C8.94912 21.6343 6.70738 23.7464 4.2217 23.6106C1.91999 23.4829 -0.132326 21.436 0.00667626 18.9233C0.129325 16.6984 2.10397 14.5836 4.77498 14.748C6.98811 14.8852 9.00772 16.8234 8.88507 19.2778L8.88371 19.2791Z" fill="#7BAA23"/>
</g>
<path d="M79.4 29.32C77.672 29.32 76.0507 29 74.536 28.36C73.0427 27.6987 71.7307 26.792 70.6 25.64C69.4907 24.4667 68.616 23.1013 67.976 21.544C67.3573 19.9867 67.048 18.3013 67.048 16.488C67.048 14.696 67.3573 13.032 67.976 11.496C68.616 9.93867 69.4907 8.584 70.6 7.432C71.7307 6.25867 73.0427 5.34133 74.536 4.68C76.0293 4.01867 77.6507 3.688 79.4 3.688C81.0427 3.688 82.4507 3.90133 83.624 4.328C84.8187 4.75467 86.0133 5.45867 87.208 6.44C87.3787 6.568 87.5067 6.70667 87.592 6.856C87.6987 6.984 87.7627 7.12267 87.784 7.272C87.8267 7.4 87.848 7.56 87.848 7.752C87.848 8.15733 87.6987 8.49867 87.4 8.776C87.1227 9.032 86.7813 9.18133 86.376 9.224C85.9707 9.24533 85.576 9.10667 85.192 8.808C84.4027 8.12533 83.5813 7.60267 82.728 7.24C81.896 6.87733 80.7867 6.696 79.4 6.696C78.1413 6.696 76.9573 6.952 75.848 7.464C74.7387 7.976 73.7573 8.68 72.904 9.576C72.072 10.472 71.4213 11.5173 70.952 12.712C70.4827 13.8853 70.248 15.144 70.248 16.488C70.248 17.8533 70.4827 19.1333 70.952 20.328C71.4213 21.5013 72.072 22.536 72.904 23.432C73.7573 24.328 74.7387 25.032 75.848 25.544C76.9573 26.0347 78.1413 26.28 79.4 26.28C80.488 26.28 81.512 26.0987 82.472 25.736C83.4533 25.352 84.392 24.8293 85.288 24.168C85.672 23.8907 86.0453 23.7733 86.408 23.816C86.792 23.8373 87.112 23.9867 87.368 24.264C87.624 24.52 87.752 24.8827 87.752 25.352C87.752 25.5653 87.7093 25.7787 87.624 25.992C87.5387 26.184 87.4107 26.3653 87.24 26.536C86.088 27.4533 84.8507 28.1467 83.528 28.616C82.2267 29.0853 80.8507 29.32 79.4 29.32ZM99.4098 29.128C97.6818 29.128 96.1564 28.7547 94.8338 28.008C93.5111 27.24 92.4658 26.1947 91.6978 24.872C90.9511 23.528 90.5778 21.992 90.5778 20.264C90.5778 18.5147 90.9511 16.9787 91.6978 15.656C92.4658 14.312 93.5111 13.2667 94.8338 12.52C96.1564 11.752 97.6818 11.368 99.4098 11.368C101.116 11.368 102.631 11.752 103.954 12.52C105.276 13.2667 106.311 14.312 107.058 15.656C107.826 16.9787 108.21 18.5147 108.21 20.264C108.21 21.992 107.836 23.528 107.09 24.872C106.343 26.1947 105.308 27.24 103.986 28.008C102.663 28.7547 101.138 29.128 99.4098 29.128ZM99.4098 26.248C100.519 26.248 101.5 25.992 102.354 25.48C103.207 24.968 103.868 24.264 104.338 23.368C104.828 22.472 105.074 21.4373 105.074 20.264C105.074 19.0907 104.828 18.056 104.338 17.16C103.868 16.2427 103.207 15.528 102.354 15.016C101.5 14.504 100.519 14.248 99.4098 14.248C98.3004 14.248 97.3191 14.504 96.4658 15.016C95.6124 15.528 94.9404 16.2427 94.4498 17.16C93.9591 18.056 93.7138 19.0907 93.7138 20.264C93.7138 21.4373 93.9591 22.472 94.4498 23.368C94.9404 24.264 95.6124 24.968 96.4658 25.48C97.3191 25.992 98.3004 26.248 99.4098 26.248ZM127.852 29.032C127.382 29.032 126.988 28.8827 126.668 28.584C126.369 28.264 126.22 27.8693 126.22 27.4V19.528C126.22 18.312 125.996 17.32 125.548 16.552C125.1 15.784 124.492 15.2187 123.724 14.856C122.977 14.472 122.113 14.28 121.132 14.28C120.236 14.28 119.425 14.4613 118.7 14.824C117.974 15.1867 117.398 15.6773 116.972 16.296C116.545 16.8933 116.332 17.5867 116.332 18.376H114.316C114.316 17.032 114.636 15.8373 115.276 14.792C115.937 13.7253 116.833 12.8827 117.964 12.264C119.094 11.6453 120.364 11.336 121.772 11.336C123.244 11.336 124.556 11.656 125.708 12.296C126.881 12.9147 127.798 13.832 128.46 15.048C129.142 16.264 129.484 17.7573 129.484 19.528V27.4C129.484 27.8693 129.324 28.264 129.003 28.584C128.705 28.8827 128.321 29.032 127.852 29.032ZM114.7 29.032C114.23 29.032 113.836 28.8827 113.516 28.584C113.217 28.264 113.068 27.8693 113.068 27.4V13.128C113.068 12.6373 113.217 12.2427 113.516 11.944C113.836 11.6453 114.23 11.496 114.7 11.496C115.19 11.496 115.585 11.6453 115.884 11.944C116.182 12.2427 116.332 12.6373 116.332 13.128V27.4C116.332 27.8693 116.182 28.264 115.884 28.584C115.585 28.8827 115.19 29.032 114.7 29.032ZM149.664 29.032C149.195 29.032 148.8 28.8827 148.48 28.584C148.181 28.264 148.032 27.8693 148.032 27.4V19.528C148.032 18.312 147.808 17.32 147.36 16.552C146.912 15.784 146.304 15.2187 145.536 14.856C144.789 14.472 143.925 14.28 142.944 14.28C142.048 14.28 141.237 14.4613 140.512 14.824C139.787 15.1867 139.211 15.6773 138.784 16.296C138.357 16.8933 138.144 17.5867 138.144 18.376H136.128C136.128 17.032 136.448 15.8373 137.088 14.792C137.749 13.7253 138.645 12.8827 139.776 12.264C140.907 11.6453 142.176 11.336 143.584 11.336C145.056 11.336 146.368 11.656 147.52 12.296C148.693 12.9147 149.611 13.832 150.272 15.048C150.955 16.264 151.296 17.7573 151.296 19.528V27.4C151.296 27.8693 151.136 28.264 150.816 28.584C150.517 28.8827 150.133 29.032 149.664 29.032ZM136.512 29.032C136.043 29.032 135.648 28.8827 135.328 28.584C135.029 28.264 134.88 27.8693 134.88 27.4V13.128C134.88 12.6373 135.029 12.2427 135.328 11.944C135.648 11.6453 136.043 11.496 136.512 11.496C137.003 11.496 137.397 11.6453 137.696 11.944C137.995 12.2427 138.144 12.6373 138.144 13.128V27.4C138.144 27.8693 137.995 28.264 137.696 28.584C137.397 28.8827 137.003 29.032 136.512 29.032ZM164.917 29.128C163.146 29.128 161.567 28.7547 160.181 28.008C158.815 27.24 157.738 26.1947 156.949 24.872C156.181 23.528 155.797 21.992 155.797 20.264C155.797 18.5147 156.159 16.9787 156.885 15.656C157.631 14.312 158.655 13.2667 159.957 12.52C161.258 11.752 162.751 11.368 164.437 11.368C166.101 11.368 167.53 11.7413 168.725 12.488C169.919 13.2133 170.826 14.2267 171.444 15.528C172.085 16.808 172.405 18.2907 172.405 19.976C172.405 20.3813 172.266 20.7227 171.989 21C171.711 21.256 171.359 21.384 170.933 21.384H158.036V18.824H170.837L169.525 19.72C169.503 18.6533 169.29 17.704 168.885 16.872C168.479 16.0187 167.903 15.3467 167.157 14.856C166.41 14.3653 165.503 14.12 164.437 14.12C163.221 14.12 162.175 14.3867 161.301 14.92C160.447 15.4533 159.797 16.1893 159.349 17.128C158.901 18.0453 158.677 19.0907 158.677 20.264C158.677 21.4373 158.943 22.4827 159.477 23.4C160.01 24.3173 160.746 25.0427 161.685 25.576C162.623 26.1093 163.701 26.376 164.917 26.376C165.578 26.376 166.25 26.2587 166.933 26.024C167.637 25.768 168.202 25.48 168.629 25.16C168.949 24.9253 169.29 24.808 169.653 24.808C170.037 24.7867 170.367 24.8933 170.645 25.128C171.007 25.448 171.199 25.8 171.221 26.184C171.242 26.568 171.071 26.8987 170.708 27.176C169.983 27.752 169.077 28.2213 167.989 28.584C166.922 28.9467 165.898 29.128 164.917 29.128ZM179.64 22.6L177.656 20.424L187.48 11.656C187.8 11.3573 188.152 11.2187 188.536 11.24C188.941 11.2613 189.282 11.432 189.56 11.752C189.858 12.072 189.997 12.424 189.976 12.808C189.954 13.192 189.784 13.5333 189.464 13.832L179.64 22.6ZM178.136 29C177.666 29 177.282 28.8613 176.984 28.584C176.706 28.2853 176.568 27.9013 176.568 27.432V5.576C176.568 5.10667 176.706 4.73333 176.984 4.456C177.282 4.15733 177.666 4.008 178.136 4.008C178.605 4.008 178.978 4.15733 179.256 4.456C179.554 4.73333 179.704 5.10667 179.704 5.576V27.432C179.704 27.9013 179.554 28.2853 179.256 28.584C178.978 28.8613 178.605 29 178.136 29ZM189.56 28.84C189.218 29.1173 188.834 29.2347 188.408 29.192C188.002 29.1707 187.661 28.9893 187.384 28.648L180.888 20.616L183.128 18.504L189.784 26.696C190.061 27.0373 190.178 27.4107 190.135 27.816C190.114 28.2 189.922 28.5413 189.56 28.84ZM201.154 29C200.088 29 199.128 28.7333 198.274 28.2C197.421 27.6453 196.749 26.8987 196.258 25.96C195.768 25.0213 195.522 23.9653 195.522 22.792V7.528C195.522 7.05867 195.672 6.67467 195.97 6.376C196.269 6.07733 196.653 5.928 197.122 5.928C197.592 5.928 197.976 6.07733 198.274 6.376C198.573 6.67467 198.722 7.05867 198.722 7.528V22.792C198.722 23.6453 198.957 24.36 199.426 24.936C199.896 25.512 200.472 25.8 201.154 25.8H202.242C202.626 25.8 202.946 25.9493 203.202 26.248C203.48 26.5467 203.618 26.9307 203.618 27.4C203.618 27.8693 203.437 28.2533 203.074 28.552C202.733 28.8507 202.285 29 201.73 29H201.154ZM194.05 14.888C193.602 14.888 193.24 14.76 192.962 14.504C192.685 14.248 192.546 13.928 192.546 13.544C192.546 13.1173 192.685 12.776 192.962 12.52C193.24 12.264 193.602 12.136 194.05 12.136H201.442C201.89 12.136 202.253 12.264 202.53 12.52C202.808 12.776 202.946 13.1173 202.946 13.544C202.946 13.928 202.808 14.248 202.53 14.504C202.253 14.76 201.89 14.888 201.442 14.888H194.05Z" fill="#FAFAFA"/>
<defs>
<clipPath id="clip0_198_1844">
<rect width="56" height="38" fill="white"/>
</clipPath>
</defs>
</svg>
